<svg width="30" height="30" viewBox="0 0 8 8" fill="none" xmlns="http://www.w3.org/2000/svg">
<g clip-path="url(#clip0_418_9)">
<path d="M3.89857 0.90918L1.39954 2.01986V3.68589C1.39954 5.22696 2.46579 6.66807 3.89857 7.01793C5.33135 6.66807 6.39761 5.22696 6.39761 3.68589V2.01986L3.89857 0.90918ZM3.89857 2.5752C4.28731 2.5752 4.67605 2.88064 4.67605 3.26938V3.68589C4.84265 3.68589 5.00925 3.85249 5.00925 4.04686V5.01871C5.00925 5.18531 4.84265 5.35191 4.64828 5.35191H3.12109C2.95449 5.35191 2.78789 5.18531 2.78789 4.99094V4.01909C2.78789 3.85249 2.95449 3.68589 3.12109 3.68589V3.26938C3.12109 2.88064 3.50983 2.5752 3.89857 2.5752ZM3.89857 2.90841C3.67644 2.90841 3.48207 3.04724 3.48207 3.26938V3.68589H4.31508V3.26938C4.31508 3.04724 4.12071 2.90841 3.89857 2.90841Z" fill="#4991FD"/>
</g>
<defs>
<clipPath id="clip0_418_9">
<rect width="6.6641" height="6.6641" fill="white" transform="translate(0.566528 0.630859)"/>
</clipPath>
</defs>
</svg>
